<?xml version="1.0" encoding="us-ascii" standalone="no"?><svg xmlns="http://www.w3.org/2000/svg" xmlns:xlink="http://www.w3.org/1999/xlink" contentStyleType="text/css" height="286px" preserveAspectRatio="none" style="width:783px;height:286px;background:#FFFFFF;" version="1.1" viewBox="0 0 783 286" width="783px" zoomAndPan="magnify"><defs/><g><!--cluster jvm--><g id="cluster_jvm"><path d="M595,6 L623,6 A3.75,3.75 0 0 1 625.5,8.5 L632.5,28.2969 L774,28.2969 A2.5,2.5 0 0 1 776.5,30.7969 L776.5,277.09 A2.5,2.5 0 0 1 774,279.59 L595,279.59 A2.5,2.5 0 0 1 592.5,277.09 L592.5,8.5 A2.5,2.5 0 0 1 595,6 " fill="none" style="stroke:#000000;stroke-width:1.5;"/><line style="stroke:#000000;stroke-width:1.5;" x1="592.5" x2="632.5" y1="28.2969" y2="28.2969"/><text fill="#000000" font-family="sans-serif" font-size="14" font-weight="bold" lengthAdjust="spacing" textLength="27" x="596.5" y="20.9951">jvm</text></g><!--cluster main??--><g id="cluster_main&#32447;&#31243;"><path d="M619,49 L685,49 A3.75,3.75 0 0 1 687.5,51.5 L694.5,71.2969 L750,71.2969 A2.5,2.5 0 0 1 752.5,73.7969 L752.5,253.09 A2.5,2.5 0 0 1 750,255.59 L619,255.59 A2.5,2.5 0 0 1 616.5,253.09 L616.5,51.5 A2.5,2.5 0 0 1 619,49 " fill="none" style="stroke:#000000;stroke-width:1.5;"/><line style="stroke:#000000;stroke-width:1.5;" x1="616.5" x2="694.5" y1="71.2969" y2="71.2969"/><text fill="#000000" font-family="sans-serif" font-size="14" font-weight="bold" lengthAdjust="spacing" textLength="65" x="620.5" y="63.9951">main&#32447;&#31243;</text></g><!--cluster heap--><g id="cluster_heap"><path d="M307,49 L347,49 A3.75,3.75 0 0 1 349.5,51.5 L356.5,71.2969 L446,71.2969 A2.5,2.5 0 0 1 448.5,73.7969 L448.5,143.79 A2.5,2.5 0 0 1 446,146.29 L307,146.29 A2.5,2.5 0 0 1 304.5,143.79 L304.5,51.5 A2.5,2.5 0 0 1 307,49 " fill="none" style="stroke:#000000;stroke-width:1.5;"/><line style="stroke:#000000;stroke-width:1.5;" x1="304.5" x2="356.5" y1="71.2969" y2="71.2969"/><text fill="#000000" font-family="sans-serif" font-size="14" font-weight="bold" lengthAdjust="spacing" textLength="39" x="308.5" y="63.9951">heap</text></g><!--entity load??s--><g id="elem_load&#26632;&#24103;s"><rect fill="#F1F1F1" height="46.2969" rx="2.5" ry="2.5" style="stroke:#181818;stroke-width:0.5;" width="105" x="632" y="84"/><rect fill="#F1F1F1" height="10" style="stroke:#181818;stroke-width:0.5;" width="15" x="717" y="89"/><rect fill="#F1F1F1" height="2" style="stroke:#181818;stroke-width:0.5;" width="4" x="715" y="91"/><rect fill="#F1F1F1" height="2" style="stroke:#181818;stroke-width:0.5;" width="4" x="715" y="95"/><text fill="#000000" font-family="sans-serif" font-size="14" lengthAdjust="spacing" textLength="65" x="647" y="116.9951">load&#26632;&#24103;s</text></g><!--entity main??--><g id="elem_main&#26632;&#24103;"><rect fill="#F1F1F1" height="46.2969" rx="2.5" ry="2.5" style="stroke:#181818;stroke-width:0.5;" width="101" x="634" y="193.29"/><rect fill="#F1F1F1" height="10" style="stroke:#181818;stroke-width:0.5;" width="15" x="715" y="198.29"/><rect fill="#F1F1F1" height="2" style="stroke:#181818;stroke-width:0.5;" width="4" x="713" y="200.29"/><rect fill="#F1F1F1" height="2" style="stroke:#181818;stroke-width:0.5;" width="4" x="713" y="204.29"/><text fill="#000000" font-family="sans-serif" font-size="14" lengthAdjust="spacing" textLength="61" x="649" y="226.2851">main&#26632;&#24103;</text></g><!--entity u--><g id="elem_u"><rect fill="#F1F1F1" height="46.2969" rx="2.5" ry="2.5" style="stroke:#181818;stroke-width:0.5;" width="111" x="321" y="84"/><rect fill="#F1F1F1" height="10" style="stroke:#181818;stroke-width:0.5;" width="15" x="412" y="89"/><rect fill="#F1F1F1" height="2" style="stroke:#181818;stroke-width:0.5;" width="4" x="410" y="91"/><rect fill="#F1F1F1" height="2" style="stroke:#181818;stroke-width:0.5;" width="4" x="410" y="95"/><text fill="#000000" font-family="sans-serif" font-size="14" lengthAdjust="spacing" textLength="71" x="336" y="116.9951">User.class</text></g><!--entity s--><g id="elem_s"><rect fill="#F1F1F1" height="46.2969" rx="2.5" ry="2.5" style="stroke:#181818;stroke-width:0.5;" width="131" x="7" y="84"/><rect fill="#F1F1F1" height="10" style="stroke:#181818;stroke-width:0.5;" width="15" x="118" y="89"/><rect fill="#F1F1F1" height="2" style="stroke:#181818;stroke-width:0.5;" width="4" x="116" y="91"/><rect fill="#F1F1F1" height="2" style="stroke:#181818;stroke-width:0.5;" width="4" x="116" y="95"/><text fill="#000000" font-family="sans-serif" font-size="14" lengthAdjust="spacing" textLength="91" x="22" y="116.9951">Scratch.class</text></g><!--entity main--><g id="elem_main"><rect fill="#F1F1F1" height="46.2969" rx="2.5" ry="2.5" style="stroke:#181818;stroke-width:0.5;" width="73" x="213" y="84"/><rect fill="#F1F1F1" height="10" style="stroke:#181818;stroke-width:0.5;" width="15" x="266" y="89"/><rect fill="#F1F1F1" height="2" style="stroke:#181818;stroke-width:0.5;" width="4" x="264" y="91"/><rect fill="#F1F1F1" height="2" style="stroke:#181818;stroke-width:0.5;" width="4" x="264" y="95"/><text fill="#000000" font-family="sans-serif" font-size="14" lengthAdjust="spacing" textLength="33" x="228" y="116.9951">main</text></g><!--entity load--><g id="elem_load"><rect fill="#F1F1F1" height="46.2969" rx="2.5" ry="2.5" style="stroke:#181818;stroke-width:0.5;" width="69" x="508" y="84"/><rect fill="#F1F1F1" height="10" style="stroke:#181818;stroke-width:0.5;" width="15" x="557" y="89"/><rect fill="#F1F1F1" height="2" style="stroke:#181818;stroke-width:0.5;" width="4" x="555" y="91"/><rect fill="#F1F1F1" height="2" style="stroke:#181818;stroke-width:0.5;" width="4" x="555" y="95"/><text fill="#000000" font-family="sans-serif" font-size="14" lengthAdjust="spacing" textLength="29" x="523" y="116.9951">load</text></g><!--link load??s to main??--><g id="link_load&#26632;&#24103;s_main&#26632;&#24103;"><path d="M684.5,130.64 C684.5,148.95 684.5,174.67 684.5,192.98 " fill="none" id="load&#26632;&#24103;s-main&#26632;&#24103;" style="stroke:#181818;stroke-width:1.0;"/></g><!--link s to main--><g id="link_s_main"><path d="M138.41,107.14 C163.47,107.14 191.13,107.14 212.57,107.14 " fill="none" id="s-main" style="stroke:#181818;stroke-width:1.0;"/><text fill="#000000" font-family="sans-serif" font-size="13" lengthAdjust="spacing" textLength="39" x="156" y="100.2069">&#31867;&#21152;&#36733;</text></g><!--link u to load--><g id="link_u_load"><path d="M432.24,107.14 C457.29,107.14 486.07,107.14 507.95,107.14 " fill="none" id="u-load" style="stroke:#181818;stroke-width:1.0;"/><text fill="#000000" font-family="sans-serif" font-size="13" lengthAdjust="spacing" textLength="39" x="450.5" y="100.2069">&#31867;&#21152;&#36733;</text></g><!--SRC=[YmvEBaeiISxGIyv9B2wELKWiLYZcAaXCpavCJrN8AijLg8Rpb78JC_EUxzh_V4Mt4b0uEYS_CUNPWewdEvO3zUdgAaI3v242iLorG0ZJc96QM01K7rgSMeHaJIbGHR42L5kirVEDkvzsBNYnTozNAKWGP3YI8000]--></g></svg>