<?xml version="1.0" encoding="us-ascii" standalone="no"?><svg xmlns="http://www.w3.org/2000/svg" xmlns:xlink="http://www.w3.org/1999/xlink" contentStyleType="text/css" height="234px" preserveAspectRatio="none" style="width:387px;height:234px;background:#FFFFFF;" version="1.1" viewBox="0 0 387 234" width="387px" zoomAndPan="magnify"><defs/><g><!--cluster jdk--><g id="cluster_jdk"><path d="M8.5,6 L324.5,6 A3.75,3.75 0 0 1 327,8.5 L334,28.2969 L377.5,28.2969 A2.5,2.5 0 0 1 380,30.7969 L380,224.8 A2.5,2.5 0 0 1 377.5,227.3 L8.5,227.3 A2.5,2.5 0 0 1 6,224.8 L6,8.5 A2.5,2.5 0 0 1 8.5,6 " fill="none" style="stroke:#000000;stroke-width:1.5;"/><line style="stroke:#000000;stroke-width:1.5;" x1="6" x2="334" y1="28.2969" y2="28.2969"/><text fill="#000000" font-family="sans-serif" font-size="14" font-weight="bold" lengthAdjust="spacing" textLength="315" x="10" y="20.9951">JDK  (javac,  jar,  debugging tools,  APIs)</text></g><!--cluster jre--><g id="cluster_jre"><path d="M32.5,49 L343.5,49 A3.75,3.75 0 0 1 346,51.5 L353,71.2969 L353.5,71.2969 A2.5,2.5 0 0 1 356,73.7969 L356,200.8 A2.5,2.5 0 0 1 353.5,203.3 L32.5,203.3 A2.5,2.5 0 0 1 30,200.8 L30,51.5 A2.5,2.5 0 0 1 32.5,49 " fill="none" style="stroke:#000000;stroke-width:1.5;"/><line style="stroke:#000000;stroke-width:1.5;" x1="30" x2="353" y1="71.2969" y2="71.2969"/><text fill="#000000" font-family="sans-serif" font-size="14" font-weight="bold" lengthAdjust="spacing" textLength="310" x="34" y="63.9951">JRE(java,  javaw,  classloader,  libraries)</text></g><!--cluster JVM--><g id="cluster_JVM"><path d="M127.5,92 L156.5,92 A3.75,3.75 0 0 1 159,94.5 L166,114.2969 L258.5,114.2969 A2.5,2.5 0 0 1 261,116.7969 L261,176.8 A2.5,2.5 0 0 1 258.5,179.3 L127.5,179.3 A2.5,2.5 0 0 1 125,176.8 L125,94.5 A2.5,2.5 0 0 1 127.5,92 " fill="none" style="stroke:#000000;stroke-width:1.5;"/><line style="stroke:#000000;stroke-width:1.5;" x1="125" x2="166" y1="114.2969" y2="114.2969"/><text fill="#000000" font-family="sans-serif" font-size="14" font-weight="bold" lengthAdjust="spacing" textLength="28" x="129" y="106.9951">JVM</text></g><!--entity "JIT compilter"--><g id="elem_&quot;JIT compilter&quot;"><rect fill="#F1F1F1" height="36.2969" rx="2.5" ry="2.5" style="stroke:#181818;stroke-width:0.5;" width="103" x="141.5" y="127"/><text fill="#000000" font-family="sans-serif" font-size="14" lengthAdjust="spacing" textLength="83" x="151.5" y="149.9951">JIT compilter</text></g><!--SRC=[JSv12i8m40NGVKunPANW9GHTD2A8YXjnCKs6a7QQb4ciIF7kreBePZvyU9_9ROWz2dPWKzUdIB6SofC9X6p1w9cKwj6sw0cqsUm05WqEQ5S03Sfq7TLtxqFqK5BYF3NhGvMN6Z13uzhnJn-tivtfW8yfBMFEdD3HPuf3BIY1lbhefyrb3wEwQbETvqy35n9zKwyt]--></g></svg>