<?xml version="1.0" encoding="us-ascii" standalone="no"?><svg xmlns="http://www.w3.org/2000/svg" xmlns:xlink="http://www.w3.org/1999/xlink" contentStyleType="text/css" height="116px" preserveAspectRatio="none" style="width:317px;height:116px;background:#FFFFFF;" version="1.1" viewBox="0 0 317 116" width="317px" zoomAndPan="magnify"><defs/><g><!--cluster JVM--><g id="cluster_JVM"><path d="M8.5,6 L37.5,6 A3.75,3.75 0 0 1 40,8.5 L47,28.2969 L307.5,28.2969 A2.5,2.5 0 0 1 310,30.7969 L310,107.09 A2.5,2.5 0 0 1 307.5,109.59 L8.5,109.59 A2.5,2.5 0 0 1 6,107.09 L6,8.5 A2.5,2.5 0 0 1 8.5,6 " fill="none" style="stroke:#000000;stroke-width:1.5;"/><line style="stroke:#000000;stroke-width:1.5;" x1="6" x2="47" y1="28.2969" y2="28.2969"/><text fill="#000000" font-family="sans-serif" font-size="14" font-weight="bold" lengthAdjust="spacing" textLength="28" x="10" y="20.9951">JVM</text></g><path d="M223,41 L277,41 A3.75,3.75 0 0 1 279.5,43.5 L286.5,63.2969 L291,63.2969 A2.5,2.5 0 0 1 293.5,65.7969 L293.5,91.0938 A2.5,2.5 0 0 1 291,93.5938 L223,93.5938 A2.5,2.5 0 0 1 220.5,91.0938 L220.5,43.5 A2.5,2.5 0 0 1 223,41 " fill="#F1F1F1" style="stroke:#181818;stroke-width:0.5;"/><line style="stroke:#181818;stroke-width:0.5;" x1="220.5" x2="286.5" y1="63.2969" y2="63.2969"/><text fill="#000000" font-family="sans-serif" font-size="14" lengthAdjust="spacing" textLength="53" x="224.5" y="55.9951">stack_1</text><path d="M115,41 L169,41 A3.75,3.75 0 0 1 171.5,43.5 L178.5,63.2969 L183,63.2969 A2.5,2.5 0 0 1 185.5,65.7969 L185.5,91.0938 A2.5,2.5 0 0 1 183,93.5938 L115,93.5938 A2.5,2.5 0 0 1 112.5,91.0938 L112.5,43.5 A2.5,2.5 0 0 1 115,41 " fill="#F1F1F1" style="stroke:#181818;stroke-width:0.5;"/><line style="stroke:#181818;stroke-width:0.5;" x1="112.5" x2="178.5" y1="63.2969" y2="63.2969"/><text fill="#000000" font-family="sans-serif" font-size="14" lengthAdjust="spacing" textLength="53" x="116.5" y="55.9951">stack_2</text><path d="M25,41 L61,41 A3.75,3.75 0 0 1 63.5,43.5 L70.5,63.2969 L75,63.2969 A2.5,2.5 0 0 1 77.5,65.7969 L77.5,91.0938 A2.5,2.5 0 0 1 75,93.5938 L25,93.5938 A2.5,2.5 0 0 1 22.5,91.0938 L22.5,43.5 A2.5,2.5 0 0 1 25,41 " fill="#F1F1F1" style="stroke:#181818;stroke-width:0.5;"/><line style="stroke:#181818;stroke-width:0.5;" x1="22.5" x2="70.5" y1="63.2969" y2="63.2969"/><text fill="#000000" font-family="sans-serif" font-size="14" lengthAdjust="spacing" textLength="35" x="26.5" y="55.9951">heap</text><!--SRC=[AyxEp2j8B4hCLKZEpot8pqlDAmakgSn9LIXAJIv9p4lFIUNYAaXCpavCJrNm2lDLg8RpYak0Z7X3XUfQD24ZPA6CrCG2eAPQhbe0]--></g></svg>